<svg xmlns="http://www.w3.org/2000/svg" width="20" height="20" viewBox="0 0 28 28">
  <g id="Group" transform="translate(28) rotate(90)">
    <circle id="Oval" cx="14" cy="14" r="14" fill="#fff"/>
    <g id="Group_5" data-name="Group 5">
      <path id="Fill_1" data-name="Fill 1" d="M14,28A14,14,0,1,1,28,14,14.016,14.016,0,0,1,14,28ZM14,.7A13.3,13.3,0,1,0,27.3,14,13.315,13.315,0,0,0,14,.7Z"/>
      <path id="Fill_3" data-name="Fill 3" d="M20.706,5.669a.44.44,0,0,0-.1-.141L14.917.126a.472.472,0,0,0-.643,0,.416.416,0,0,0,0,.61L19.189,5.4H1.552L6.467.736a.416.416,0,0,0,0-.61.472.472,0,0,0-.643,0L.133,5.528a.426.426,0,0,0-.1.141.412.412,0,0,0,0,.33.426.426,0,0,0,.1.141l5.691,5.4a.472.472,0,0,0,.643,0,.416.416,0,0,0,0-.61L1.552,6.265H19.189L14.274,10.93a.416.416,0,0,0,0,.61.472.472,0,0,0,.643,0l5.691-5.4a.432.432,0,0,0,.1-.141.41.41,0,0,0,0-.33" transform="translate(4.148 8.296)"/>
    </g>
    <g id="Group_5-2" data-name="Group 5">
      <path id="Fill_1-2" data-name="Fill 1" d="M14,28A14,14,0,1,1,28,14,14.016,14.016,0,0,1,14,28ZM14,.7A13.3,13.3,0,1,0,27.3,14,13.315,13.315,0,0,0,14,.7Z"/>
      <path id="Fill_3-2" data-name="Fill 3" d="M20.706,5.669a.44.44,0,0,0-.1-.141L14.917.126a.472.472,0,0,0-.643,0,.416.416,0,0,0,0,.61L19.189,5.4H1.552L6.467.736a.416.416,0,0,0,0-.61.472.472,0,0,0-.643,0L.133,5.528a.426.426,0,0,0-.1.141.412.412,0,0,0,0,.33.426.426,0,0,0,.1.141l5.691,5.4a.472.472,0,0,0,.643,0,.416.416,0,0,0,0-.61L1.552,6.265H19.189L14.274,10.93a.416.416,0,0,0,0,.61.472.472,0,0,0,.643,0l5.691-5.4a.432.432,0,0,0,.1-.141.41.41,0,0,0,0-.33" transform="translate(4.148 8.296)"/>
    </g>
  </g>
</svg>
